<?xml version="1.0" encoding="UTF-8"?>
<svg width="77px" height="27px" viewBox="0 0 77 27" version="1.1" xmlns="http://www.w3.org/2000/svg" xmlns:xlink="http://www.w3.org/1999/xlink">
    <!-- Generator: Sketch 52.4 (67378) - http://www.bohemiancoding.com/sketch -->
    <title>合并形状</title>
    <desc>Created with Sketch.</desc>
    <g id="终稿" stroke="none" stroke-width="1" fill="none" fill-rule="evenodd">
        <g id="2首页-copy-20" transform="translate(-370.000000, -17.000000)" fill="#FF373C">
            <g id="tab">
                <g id="分组" transform="translate(370.000000, 17.000000)">
                    <path d="M57.628935,7.268805 L71.1288,7.268805 L71.1288,5.13 L57.628935,5.13 L57.628935,7.268805 Z M53.66898,10.688895 L53.66898,1.710045 L75.088755,1.710045 L75.088755,10.688895 L53.66898,10.688895 Z M52.228962,12.7139085 L76.528827,12.7139085 L76.528827,15.8639985 L59.920587,15.8639985 L59.361282,17.8891335 L75.628782,17.8891335 L75.628782,19.7267535 L74.008782,27.0000135 L57.628962,27.0000135 L57.628962,23.5800585 L70.810632,23.5800585 L71.316342,21.3090885 L54.928962,21.3090885 L54.928962,19.5990435 L55.960767,15.8639985 L52.228962,15.8639985 L52.228962,12.7139085 Z M10.85373,2.943567 L10.85373,6.760692 L2.24667,5.527062 L2.24667,1.709937 L10.85373,2.943567 Z M10.85373,9.4030605 L10.85373,13.2201855 L2.24667,11.9865555 L2.24667,8.1694305 L10.85373,9.4030605 Z M36.2411415,13.9189455 L40.2012315,13.9189455 L40.2012315,15.8640255 L50.3999415,15.8640255 L50.3999415,19.2839805 L40.2012315,19.2839805 L40.2012315,26.9997705 L36.2411415,26.9997705 L36.2411415,19.2839805 L26.1002115,19.2839805 L26.1002115,15.8640255 L36.2411415,15.8640255 L36.2411415,13.9189455 Z M17.572545,0.8550225 C17.47413,8.1393525 17.33913,12.4963425 16.28262,15.8640525 L24.299865,15.8640525 L24.299865,19.2840075 L14.692725,19.2840075 C13.158585,21.6801225 10.77273,23.8883175 7.03512,26.9997975 L0.93906,26.9997975 C1.20177,26.7848775 1.458945,26.5746825 1.707615,26.3715075 C5.463855,23.3017425 8.04519,21.1916925 9.79587,19.2840075 L-2.30926389e-14,19.2840075 L-2.30926389e-14,15.8640525 L12.14109,15.8640525 C13.497165,12.8297925 13.60179,8.4983175 13.702365,0.8550225 L17.572545,0.8550225 Z M15.873705,20.9940795 L20.54322,20.9940795 L24.296085,26.9996895 L19.62657,26.9996895 L15.873705,20.9940795 Z M41.977359,20.9940795 L46.646874,20.9940795 L50.399739,26.9996895 L45.730224,26.9996895 L41.977359,20.9940795 Z M26.0998335,26.99973 L29.8525635,20.99412 L34.5220785,20.99412 L30.7693485,26.99973 L26.0998335,26.99973 Z M32.3537355,5.13 C33.7027905,6.00831 35.5483755,7.025805 38.2744305,8.04087 C41.0053455,7.024725 42.8278455,6.00723 44.1177705,5.13 L32.3537355,5.13 Z M50.3997255,14.74632 C45.1950705,13.89528 41.2307955,12.874815 38.1622455,11.82438 C35.0557605,12.90411 31.1214555,13.92498 26.0998605,14.744025 L26.0998605,11.095515 C28.7337105,10.65231 31.0145355,10.1682 32.9972805,9.6633 C30.8422755,8.55738 29.4548805,7.527735 28.4056605,6.74892 C28.2462255,6.630525 26.7774255,5.48613 26.7774255,5.48613 L30.4507755,-1.59872116e-14 L34.1118405,1.710045 L49.0498605,1.710045 L49.0498605,5.688765 C47.9427255,6.681285 46.2721005,8.11593 43.3648755,9.62037 C45.3793455,10.14201 47.7040455,10.64151 50.3997255,11.097135 L50.3997255,14.74632 Z" id="合并形状"></path>
                </g>
            </g>
        </g>
    </g>
</svg>